<svg width="16" height="16" viewBox="0 0 16 16" fill="none" xmlns="http://www.w3.org/2000/svg">
  <path d="M4.2 2.4c-.5.1-.9.5-.8 1 0 5.1 4.1 9.2 9.2 9.2.5.1.9-.3 1-.8l.2-1.3-2.8-1.3-.9 1.1c-1.8-.8-3.1-2.1-3.9-3.9l1.1-.9L5 2.2l-.8.2z" stroke="#ffffff" stroke-width="1.45" stroke-linecap="round" stroke-linejoin="round" transform="translate(.35 .35)" opacity=".92"/>
  <path d="M4.2 2.4c-.5.1-.9.5-.8 1 0 5.1 4.1 9.2 9.2 9.2.5.1.9-.3 1-.8l.2-1.3-2.8-1.3-.9 1.1c-1.8-.8-3.1-2.1-3.9-3.9l1.1-.9L5 2.2l-.8.2z" stroke="#aeb3bb" stroke-width="1.45" stroke-linecap="round" stroke-linejoin="round"/>
</svg>
