<svg width="16" height="16" viewBox="0 0 16 16" fill="none" xmlns="http://www.w3.org/2000/svg">
  <path d="M13.3 3.2 2.4 7.4c-.5.2-.5.5 0 .7l2.7.8 1 3.1c.1.3.3.4.6.2l1.5-1.4 2.8 2c.3.2.7.1.8-.4l2.2-8.5c.1-.5-.2-.8-.7-.7zM5.8 8.6l5.4-3.4-4.4 4.2-.2 1.8-.8-2.6z" fill="#ffffff" transform="translate(.35 .35)" opacity=".92"/>
  <path d="M13.3 3.2 2.4 7.4c-.5.2-.5.5 0 .7l2.7.8 1 3.1c.1.3.3.4.6.2l1.5-1.4 2.8 2c.3.2.7.1.8-.4l2.2-8.5c.1-.5-.2-.8-.7-.7zM5.8 8.6l5.4-3.4-4.4 4.2-.2 1.8-.8-2.6z" fill="#aeb3bb"/>
</svg>
