<svg width="16" height="16" viewBox="0 0 16 16" fill="none" xmlns="http://www.w3.org/2000/svg">
  <path d="M2.4 5h1.9c.1 2.9 1.3 4.5 3.3 4.9V5h1.8v2.7c.9-.1 1.8-1.3 2.1-2.7h1.8c-.3 1.7-1.4 2.8-2.2 3.2.8.4 2.1 1.4 2.6 3.4h-2c-.3-1.2-1.2-2.1-2.3-2.2v2.2H7.2C4.3 11.6 2.6 9.2 2.4 5z" fill="#ffffff" transform="translate(.35 .35)" opacity=".92"/>
  <path d="M2.4 5h1.9c.1 2.9 1.3 4.5 3.3 4.9V5h1.8v2.7c.9-.1 1.8-1.3 2.1-2.7h1.8c-.3 1.7-1.4 2.8-2.2 3.2.8.4 2.1 1.4 2.6 3.4h-2c-.3-1.2-1.2-2.1-2.3-2.2v2.2H7.2C4.3 11.6 2.6 9.2 2.4 5z" fill="#aeb3bb"/>
</svg>
