<svg width="444" height="110" viewBox="0 0 444 110" fill="none" xmlns="http://www.w3.org/2000/svg">
<g id="Onixbit lockup primary">
<path id="mark" d="M55.1309 30.7561C68.8046 30.7561 78.3168 40.2682 78.3168 54.5364C78.3168 68.8046 68.8046 78.3167 55.1309 78.3167H31.3506V67.6156H55.1309C62.8596 67.6156 67.6156 62.265 67.6156 54.5364C67.6156 46.8078 62.8596 41.4572 55.1309 41.4572C47.4023 41.4572 42.0518 46.8078 42.0518 54.5364V62.265H30.7561V54.5364C30.7561 40.2682 40.8627 30.7561 55.1309 30.7561Z" fill="#ED1C24"/>
<path id="onix" d="M120.311 73.3294C117.503 73.3294 114.892 72.8833 112.48 71.9912C110.101 71.0991 108.036 69.8435 106.285 68.2244C104.534 66.5723 103.162 64.6393 102.171 62.4255C101.213 60.2117 100.734 57.7996 100.734 55.1893C100.734 52.5459 101.213 50.1338 102.171 47.953C103.162 45.7392 104.534 43.8228 106.285 42.2037C108.036 40.5516 110.101 39.2795 112.48 38.3873C114.892 37.4952 117.503 37.0491 120.311 37.0491C123.153 37.0491 125.763 37.4952 128.142 38.3873C130.521 39.2795 132.586 40.5516 134.338 42.2037C136.089 43.8228 137.444 45.7392 138.402 47.953C139.393 50.1338 139.889 52.5459 139.889 55.1893C139.889 57.7996 139.393 60.2117 138.402 62.4255C137.444 64.6393 136.089 66.5723 134.338 68.2244C132.586 69.8435 130.521 71.0991 128.142 71.9912C125.763 72.8833 123.153 73.3294 120.311 73.3294ZM120.311 63.8628C121.402 63.8628 122.409 63.6646 123.335 63.2681C124.293 62.8716 125.119 62.3098 125.813 61.5829C126.54 60.823 127.101 59.9143 127.498 58.8569C127.894 57.7666 128.093 56.544 128.093 55.1893C128.093 53.8345 127.894 52.6285 127.498 51.5712C127.101 50.4808 126.54 49.5721 125.813 48.8452C125.119 48.0852 124.293 47.507 123.335 47.1105C122.409 46.714 121.402 46.5157 120.311 46.5157C119.221 46.5157 118.196 46.714 117.238 47.1105C116.313 47.507 115.487 48.0852 114.76 48.8452C114.066 49.5721 113.521 50.4808 113.125 51.5712C112.728 52.6285 112.53 53.8345 112.53 55.1893C112.53 56.544 112.728 57.7666 113.125 58.8569C113.521 59.9143 114.066 60.823 114.76 61.5829C115.487 62.3098 116.313 62.8716 117.238 63.2681C118.196 63.6646 119.221 63.8628 120.311 63.8628ZM168.102 37.8421H179.799V72.5364H168.102V37.8421ZM157.297 72.5364H145.6V37.8421H157.297V72.5364ZM168.895 59.7491H156.504V50.1338H168.895V59.7491ZM187.469 72.5364V37.8421H198.968V55.8831L210.913 37.8421H221.916V72.5364H210.417V54.5449L198.522 72.5364H187.469ZM250.892 72.5364L242.268 56.2797L251.586 50.8277L264.076 72.5364H250.892ZM229.283 72.5364V37.8421H240.98V72.5364H229.283ZM237.609 59.9969V50.7781H250.744V59.9969H237.609ZM252.726 56.4283L241.971 55.338L251.933 37.8421H264.126L252.726 56.4283ZM285.168 73.3294C282.393 73.3294 279.815 72.8999 277.436 72.0408C275.09 71.1486 273.042 69.893 271.29 68.274C269.572 66.6549 268.234 64.7384 267.276 62.5246C266.318 60.3108 265.839 57.8657 265.839 55.1893C265.839 52.5129 266.318 50.0677 267.276 47.8539C268.234 45.6401 269.572 43.7236 271.29 42.1046C273.042 40.4855 275.09 39.2464 277.436 38.3873C279.815 37.4952 282.393 37.0491 285.168 37.0491C288.572 37.0491 291.578 37.6439 294.189 38.8334C296.832 40.0229 299.013 41.7411 300.731 43.988L293.346 50.5799C292.322 49.2912 291.182 48.3 289.926 47.6061C288.704 46.8792 287.316 46.5157 285.763 46.5157C284.54 46.5157 283.433 46.714 282.442 47.1105C281.451 47.507 280.592 48.0852 279.865 48.8452C279.171 49.6051 278.626 50.5303 278.229 51.6207C277.833 52.6781 277.635 53.8676 277.635 55.1893C277.635 56.511 277.833 57.717 278.229 58.8074C278.626 59.8647 279.171 60.7734 279.865 61.5334C280.592 62.2933 281.451 62.8716 282.442 63.2681C283.433 63.6646 284.54 63.8628 285.763 63.8628C287.316 63.8628 288.704 63.5159 289.926 62.822C291.182 62.0951 292.322 61.0873 293.346 59.7986L300.731 66.3906C299.013 68.6044 296.832 70.3226 294.189 71.5451C291.578 72.7346 288.572 73.3294 285.168 73.3294Z" fill="#0F172A"/>
<path id="bit" d="M305.767 72.5364V37.8421H335.852V46.6644H317.266V50.679H325.543C329.772 50.679 333.01 51.5877 335.257 53.405C337.537 55.1893 338.677 57.7831 338.677 61.1864C338.677 64.7219 337.388 67.4975 334.811 69.513C332.234 71.5286 328.649 72.5364 324.056 72.5364H305.767ZM317.266 64.3585H323.263C324.419 64.3585 325.311 64.1106 325.939 63.615C326.6 63.1194 326.931 62.409 326.931 61.4838C326.931 59.6995 325.708 58.8074 323.263 58.8074H317.266V64.3585ZM344.199 72.5364V37.8421H355.698V55.8831L367.643 37.8421H378.646V72.5364H367.147V54.5449L355.252 72.5364H344.199ZM394.191 72.5364V44.3845L396.718 46.9122H384.03V37.8421H415.85V46.9122H403.162L405.689 44.3845V72.5364H394.191Z" fill="#B80F17"/>
</g>
</svg>
