<?xml version="1.0" encoding="utf-8"?>
<!-- Generator: Adobe Illustrator 28.0.0, SVG Export Plug-In . SVG Version: 6.00 Build 0)  -->
<svg version="1.1" id="Слой_1" xmlns="http://www.w3.org/2000/svg" xmlns:xlink="http://www.w3.org/1999/xlink" x="0px" y="0px"
	 viewBox="0 0 1000 180.6" style="enable-background:new 0 0 1000 180.6;" xml:space="preserve">
<style type="text/css">
	.st0{fill:#0BBBEF;}
	.st1{fill:#005893;}
</style>
<path class="st0" d="M24.4,113.7v-41h9.9c8.8,0,16.1,1,21.3,4.2c5.2,3.1,8.3,8.3,8.3,16.6c0,14-8.3,20.2-28,20.2
	C35.8,113.7,24.4,113.7,24.4,113.7z M0.5,133.4h34.7c38.9,0,52.9-17.1,52.9-41c0-16.1-6.7-27-18.7-33.2c-9.3-5.2-21.3-6.7-35.8-6.7
	h-9.3V21.3h52.4L83,2.1H0v131.3L0.5,133.4L0.5,133.4z M104.3,133.4h22.8l29.6-42.5c5.7-7.8,9.9-15.6,12.5-19.7h0.5
	c-0.5,5.7-1,13-1,20.2v41.5h23.3V39.5h-22.8l-29.6,42.5c-5.2,7.8-9.9,15.6-12.5,19.7h-0.5c0.5-5.7,1-13,1-20.2V40.1h-23.3
	L104.3,133.4L104.3,133.4L104.3,133.4z M231.9,133.4h23.9V59.2h28l6.2-19.7h-86.6v19.7h28.5L231.9,133.4L231.9,133.4z M321.7,180.6
	v-47.2c4.7,1.6,9.3,2.1,14.5,2.1c29.6,0,48.8-20.2,48.8-49.3s-17.6-49.3-51.4-49.3c-13,0-25.4,2.6-35.8,5.7l0.5,138L321.7,180.6
	L321.7,180.6z M321.7,113.2v-55c3.6-1,6.7-1.6,10.9-1.6c17.1,0,28,9.3,28,29.6c0,18.2-8.8,29.6-26.5,29.6
	C329.4,115.8,325.8,114.7,321.7,113.2C321.6,113.2,321.7,113.2,321.7,113.2z M398.9,133.4h22.8l29.6-42.5
	c5.7-7.8,9.8-15.6,12.5-19.7h0.5c-0.5,5.7-1,13-1,20.2v41.5h23.3V39.5h-22.8l-29.6,42.5c-5.2,7.8-9.8,15.6-12.5,19.7h-0.5
	c0.5-5.7,1-13,1-20.2V40.1H399L398.9,133.4L398.9,133.4L398.9,133.4z M505.3,133.4h23.9V94.5h14c2.6,0,5.2,2.6,8.3,8.8l11.9,30.1
	h25.4l-17.1-35.8c-3.1-6.2-6.2-9.9-10.9-11.4v-0.5c7.8-4.7,8.8-18.2,13.5-24.9c1.6-2.1,3.6-3.1,6.7-3.1c1.6,0,3.6,0,5.2,1V38.5
	c-2.6-1-7.3-1.6-9.8-1.6c-8.3,0-13.5,3.1-17.1,8.3c-7.8,11.4-7.8,31.1-19.2,31.1h-10.9V39.5h-23.9L505.3,133.4L505.3,133.4
	L505.3,133.4z M641.8,135.5c13,0,24.9-4.2,32.2-9.3l-6.7-16.1c-6.7,3.6-13,6.2-21.8,6.2c-16.1,0-26.5-10.4-26.5-29.6
	c0-17.1,10.4-30.6,28-30.6c9.3,0,16.1,2.6,22.8,7.3V43.1c-5.2-3.1-13.5-6.2-25.4-6.2c-28,0-49.8,20.7-49.8,50.3
	C594.5,114.2,611.1,135.5,641.8,135.5L641.8,135.5L641.8,135.5z"/>
<path class="st1" d="M949.1,101.7c-28,0-50.3-22.3-50.9-50.9c0-28,22.8-50.9,50.9-50.9c28,0,50.9,22.8,50.9,50.9
	C1000,78.9,977.2,101.7,949.1,101.7L949.1,101.7z M949.1,12.4c-21.1,0-38.4,17.3-38.4,38.4c0.5,21.6,17.3,38.4,38.4,38.4
	c21.1,0,38.4-17.3,38.4-38.4C987.6,29.7,970.3,12.4,949.1,12.4L949.1,12.4z"/>
<path class="st1" d="M942.7,24.8h9.9v33.4h-9.9V24.8L942.7,24.8z"/>
<path class="st1" d="M976.2,48.4v9.9h-33.4v-9.9H976.2z M687.4,133.4h91.3v-20.2h-60.2c8.3-33.2,59.1-40.5,59.1-77.3
	c0-19.7-13.5-34.2-42-34.2c-17.6,0-33.2,5.2-43.6,10.4l6.2,18.7c9.3-4.7,20.2-8.8,33.7-8.8c10.4,0,20.2,4.7,20.2,16.6
	C752.3,65.5,692.6,67.5,687.4,133.4L687.4,133.4z M839.9,101.3v32.2h23.3v-32.2H883V81.5h-19.7V1.6h-17.1l-64.9,84v15.6H839.9z
	 M807.8,82.6L841,38c0,3.6-1,15.1-1,25.4V82h-15.6C819.7,82,810.9,82.6,807.8,82.6L807.8,82.6L807.8,82.6z"/>
</svg>
