<svg xmlns="http://www.w3.org/2000/svg" viewBox="0 0 5731.45 2192.32" width="1751" height="669">
    <defs>
        <linearGradient id="logo-footer-dark-gradient-7" x1="2139.88" y1="-1553" x2="2859.51" y2="-1121.07" gradientTransform="matrix(1, 0, 0, -1, -307, -742.64)" gradientUnits="userSpaceOnUse">
            <stop offset="0" stop-color="#32ccff"/>
            <stop offset="0.05" stop-color="#30b8f5"/>
            <stop offset="0.15" stop-color="#2c97e5"/>
            <stop offset="0.25" stop-color="#2a7dd8"/>
            <stop offset="0.35" stop-color="#286acf"/>
            <stop offset="0.46" stop-color="#275fc9"/>
            <stop offset="0.58" stop-color="#275cc8"/>
            <stop offset="0.6" stop-color="#2b5aca"/>
            <stop offset="0.76" stop-color="#4750d9"/>
            <stop offset="0.9" stop-color="#584ae2"/>
            <stop offset="1" stop-color="#5f48e6"/>
        </linearGradient>

        <linearGradient id="logo-footer-dark-gradient-6" x1="3787.93" y1="-1107.91" x2="3023.38" y2="-1586.63" gradientTransform="matrix(1, 0, 0, -1, -307, -742.64)" gradientUnits="userSpaceOnUse">
            <stop offset="0.24" stop-color="#8f45e1"/>
            <stop offset="0.78" stop-color="#494ad8"/>
            <stop offset="1" stop-color="#494ad8"/>
        </linearGradient>

        <linearGradient id="logo-footer-dark-gradient-5" x1="3838.23" y1="-1123.35" x2="4618.48" y2="-733.9" gradientTransform="matrix(1, 0, 0, -1, -307, -742.64)" gradientUnits="userSpaceOnUse">
            <stop offset="0.08" stop-color="#7632c7"/>
            <stop offset="0.16" stop-color="#8b42dc"/>
            <stop offset="0.27" stop-color="#9e50ef"/>
            <stop offset="0.34" stop-color="#a556f7"/>
            <stop offset="0.45" stop-color="#ab5cf7"/>
            <stop offset="0.62" stop-color="#be6ffa"/>
            <stop offset="0.81" stop-color="#dd8dfe"/>
            <stop offset="0.85" stop-color="#e595ff"/>
        </linearGradient>
    </defs>

    <g>
        <path fill="url(#logo-footer-dark-gradient-7)" style="fill:url(#logo-footer-dark-gradient-7);" d="M1593.13,99c-26.63-43.25,4.47-99,55.27-99h492.1a194.78,194.78,0,0,1,165.83,92.62l431.43,691.73a194.79,194.79,0,0,1,.87,202.85l-183.64,304c-50.25,83.18-170.73,83.7-221.68.95Z"/>
        <path fill="url(#logo-footer-dark-gradient-6)" style="fill:url(#logo-footer-dark-gradient-6);" d="M2527.39,99c-26.63-43.25,4.49-99,55.28-99h487.4A194.77,194.77,0,0,1,3236,92.83l413.16,689.49a194.77,194.77,0,0,1,3.12,198.61L3475.81,1289.6c-48.91,85.56-171.59,87.55-223.27,3.64Z"/>
        <path fill="url(#logo-footer-dark-gradient-5)" style="fill:url(#logo-footer-dark-gradient-5);" d="M3499.57,149.68C3426.22,111.46,3453.38.5,3536.1.5h532.78c60.37,0,98.46,64.91,69,117.62L3881.13,577.83c-39.05,69.92-145.37,44.13-148-35.92l-1.34-40a403.26,403.26,0,0,0-216.69-344.13l-15.49-8.07Z"/>

        <path fill="#38323f" style="fill:#38323f;" d="M256,2182.31H0v-578H251.56c108.55,0,176.64,55.68,176.64,144.2,0,63.28-47.27,116.16-108.54,125.37v3.21c78.5,6,136.18,63.29,136.18,139.79C455.84,2118.62,379.33,2182.31,256,2182.31ZM121,1694.42v150.21h86.91c64.5,0,101.35-28.43,101.35-77.3,0-46.47-32.45-72.91-88.93-72.91Zm0,397.76H225.12c69.7,0,107.35-29.64,107.35-84.91,0-54.08-38.86-82.92-110.16-82.92H121Zm610.83-262c-51.27,0-88.12,38.84-92.13,92.52H821.94C819.54,1867.87,783.88,1830.22,731.81,1830.22Zm91.73,220.7H930.89c-12.82,84.12-89.72,140.6-195.88,140.6-132.18,0-211.49-84.51-211.49-221.91,0-137,80.11-225.91,207.09-225.91,125,0,203.88,84.51,203.88,215.09v35.65h-296v7.22c0,61.28,38.86,103.34,98.53,103.34C779.88,2105,812.73,2083.77,823.54,2050.92Zm398.94,140.6c-138.59,0-217.11-87.32-217.11-255.16,0-241.53,81.73-334.87,238.34-339.67l50.07-1.2c54.07-2,101.34-11.62,113-17.63v90.53c-6.41,6-46.86,16.82-105.75,18.42l-47.26,1.61c-106.16,3.2-144.2,53.27-158.22,162.63h3.19c26.44-51.28,74.92-80.92,145-80.92,115.76,0,191.07,78.91,191.07,203.48C1434.78,2108.61,1353.46,2191.52,1222.48,2191.52Zm-2-92.13c59.28,0,94.53-44.06,94.53-123,0-75.31-35.25-119.37-94.53-119.37-59.69,0-95.34,44.06-95.34,119.37C1125.14,2055.33,1160.4,2099.39,1220.48,2099.39Zm749-505.11c171,0,278.78,115,278.78,299.23,0,183.85-107.74,298.81-278.78,298.81-171.44,0-278.79-115-278.79-298.81C1690.71,1709.24,1798.06,1594.28,1969.5,1594.28Zm0,100.94c-94.54,0-155.42,76.92-155.42,198.29,0,121,60.48,197.47,155.42,197.47,94.53,0,155-76.51,155-197.47C2124.51,1772.14,2064,1695.22,1969.5,1695.22Zm635.67,487.09V1841H2451.81v341.28h-111v-429.4h375.4v429.4Zm578.39-429.4V1841H3055.78v341.28H2939.22V1841H2811v-88.12Zm190.65,429.4H3259.65v-429.4h114.56v268.37h3.2l170.64-268.37h114.56v429.4H3548.05V1910.73h-3.2Zm498.68,0H3763.14v-429.4h151.41l112.16,280.39h2.81l112.14-280.39h149.82v429.4H4181.73v-287.2h-2.81l-111.36,263.16h-80.91l-111-263.16h-2.81Zm685.34-77.71c50.88,0,92.93-33.25,92.93-79.71v-31.25l-90.53,5.61c-43.65,3.21-68.49,22.83-68.49,53.27C4492.14,2084.57,4518.58,2104.6,4558.23,2104.6Zm-38.45,84.51c-81.71,0-143.8-52.87-143.8-130.17,0-78.11,60.09-123.38,167-129.78l108.15-6.42v-28.43c0-40.06-28-63.29-72.09-63.29-43.67,0-71.3,21.63-76.91,53.27h-107c4.42-83.32,75.31-140.59,189.07-140.59,110.15,0,181.86,56.87,181.86,143.39v295.22h-113v-65.7h-2.4C4626.73,2162.28,4573.46,2189.11,4519.78,2189.11Zm460.23-6.8H4865.45v-429.4H4980v268.37h3.21l170.63-268.37h114.57v429.4H5153.85V1910.73h-3.2Zm-50.47-623.68h71.3c.8,42.86,27.64,73.71,69.7,73.71,41.66,0,68.49-30.85,69.29-73.71h71.7c0,78.92-56.88,131.78-141,131.78C4986,1690.41,4929.54,1637.55,4929.54,1558.63Zm613.24,632.89c-111.35,0-184.26-54.47-192.27-145.41h111.35c10,36.46,37.66,54.88,80.92,54.88,46.47,0,72.1-20.42,72.1-51.67,0-33.64-24-49.27-71.7-49.27H5483.9v-76.11H5540c41.26,0,62.49-14.81,62.49-45.26,0-28-20.42-46.86-61.69-46.86-40.85,0-66.88,18-72.09,50.46H5358.52c8.41-86.11,76.51-138.58,181.45-138.58,114.57,0,176.25,45.66,176.25,122.17,0,42.85-24.43,77.7-64.48,88.91V1958c52.06,13.62,79.71,48.07,79.71,95.74C5731.45,2138.24,5659.34,2191.52,5542.78,2191.52Z"/>
    </g>
</svg>