<svg xmlns="http://www.w3.org/2000/svg" xml:space="preserve" width="160px" height="50px" version="1.1" style="shape-rendering:geometricPrecision; text-rendering:geometricPrecision; image-rendering:optimizeQuality; fill-rule:evenodd; clip-rule:evenodd"
viewBox="0 0 160 50"
 xmlns:xlink="http://www.w3.org/1999/xlink"
 xmlns:xodm="http://www.corel.com/coreldraw/odm/2003">
 <defs>
  <style>
   <![CDATA[
    .fil2 {fill:#E31E24}
    .fil3 {fill:#E31E24}
    .fil4 {fill:#312F2D}
    .fil1 {fill:#E31E24;fill-rule:nonzero}
    .fil0 {fill:#312F2D;fill-rule:nonzero}
   ]]>
  </style>
 </defs>
 <g id="Слой_x0020_1">
  <metadata id="CorelCorpID_0Corel-Layer"/>
  <path class="fil0" d="M49.738 26.075c0,-1.986 0.299,-3.655 0.893,-5.006 0.44,-0.993 1.048,-1.886 1.814,-2.675 0.766,-0.789 1.605,-1.374 2.517,-1.759 1.215,-0.513 2.616,-0.771 4.203,-0.771 2.875,0 5.169,0.893 6.897,2.675 1.723,1.787 2.584,4.267 2.584,7.445 0,3.152 -0.857,5.618 -2.566,7.396 -1.71,1.782 -4,2.671 -6.861,2.671 -2.897,0 -5.205,-0.885 -6.914,-2.657 -1.71,-1.769 -2.567,-4.208 -2.567,-7.319zm4.054 -0.131c0,2.208 0.512,3.881 1.532,5.024 1.021,1.138 2.317,1.709 3.886,1.709 1.574,0 2.861,-0.567 3.873,-1.696 1.006,-1.133 1.51,-2.829 1.51,-5.092 0,-2.235 -0.49,-3.904 -1.474,-5.001 -0.98,-1.102 -2.281,-1.651 -3.909,-1.651 -1.623,0 -2.933,0.558 -3.926,1.669 -0.993,1.116 -1.492,2.793 -1.492,5.038zm17.924 9.753l0 -19.479 3.818 0 8.016 13.054 0 -13.054 3.646 0 0 19.479 -3.94 0 -7.894 -12.805 0 12.805 -3.646 0zm19.511 0l0 -19.479 3.945 0 0 19.479 -3.945 0zm5.722 0l6.725 -10.157 -6.099 -9.322 4.593 0 3.836 5.799 3.836 -5.799 4.603 0 -6.112 9.327 6.71 10.152 -4.724 0 -4.317 -6.597 -4.321 6.597 -4.73 0z"/>
  <path class="fil1" d="M117.068 16.218l7.79 0c1.546,0 2.694,0.063 3.451,0.19 0.761,0.132 1.437,0.399 2.035,0.803 0.599,0.408 1.098,0.947 1.497,1.623 0.399,0.675 0.599,1.437 0.599,2.276 0,0.907 -0.245,1.746 -0.735,2.503 -0.49,0.762 -1.156,1.328 -1.995,1.709 1.183,0.35 2.09,0.939 2.73,1.774 0.634,0.834 0.952,1.813 0.952,2.942 0,0.889 -0.204,1.75 -0.617,2.589 -0.413,0.839 -0.975,1.51 -1.691,2.014 -0.712,0.498 -1.592,0.807 -2.639,0.924 -0.653,0.069 -2.236,0.114 -4.743,0.132l-6.634 0 0 -19.479zm3.945 3.237l0 4.489 2.575 0c1.529,0 2.481,-0.023 2.853,-0.068 0.671,-0.077 1.201,-0.308 1.586,-0.694 0.386,-0.385 0.576,-0.888 0.576,-1.514 0,-0.603 -0.167,-1.088 -0.498,-1.465 -0.331,-0.376 -0.826,-0.603 -1.478,-0.68 -0.39,-0.045 -1.51,-0.068 -3.356,-0.068l-2.258 0zm0 7.726l0 5.224 3.645 0c1.415,0 2.318,-0.041 2.698,-0.118 0.585,-0.109 1.061,-0.367 1.429,-0.78 0.367,-0.417 0.553,-0.965 0.553,-1.659 0,-0.59 -0.141,-1.084 -0.426,-1.492 -0.281,-0.408 -0.694,-0.707 -1.229,-0.893 -0.535,-0.186 -1.7,-0.282 -3.491,-0.282l-3.179 0zm15.566 8.516l0 -19.479 3.945 0 0 19.479 -3.945 0zm12.075 0l0 -16.188 -5.768 0 0 -3.291 15.453 0 0 3.291 -5.74 0 0 16.188 -3.945 0z"/>
  <path class="fil2" d="M33.028 30.367c-0.28,-0.028 -5.52,-2.383 -6.251,-2.704 -2.229,-0.978 -4.024,-1.463 -5.009,-3.948 -1.027,-2.59 0.282,-4.649 1.282,-6.961 0.325,-0.752 2.426,-5.96 2.781,-6.098 0.353,-0.136 5.449,2.227 6.2,2.553 2.227,0.967 4.01,1.492 4.967,3.983 1,2.605 -0.305,4.571 -1.294,6.895 -0.844,1.981 -2.007,4.286 -2.676,6.28zm-19.073 -24.346l0.859 0c0.568,0.043 1.146,0.172 1.72,0.394 2.447,0.943 5.064,2.191 7.497,3.246 2.682,1.163 1.132,0.814 2.788,-1.171 0.848,-1.016 2.2,-1.734 3.511,-1.886 2.338,-0.272 5.863,1.657 8.055,2.634 2.351,1.049 5.343,1.804 6.681,4.107 1.711,2.946 0.041,5.421 -1.107,8.14 -0.532,1.259 -1.095,2.507 -1.632,3.763 -0.467,1.094 -1.07,2.726 -1.72,3.674 -1.808,2.634 -4.874,2.837 -7.579,1.514 -1.093,2.496 -2.211,5.012 -3.266,7.522 -1.156,2.749 -2.539,4.901 -5.942,4.767 -1.687,-0.066 -6.02,-2.212 -7.806,-2.981 -2.501,-1.077 -5.003,-2.163 -7.498,-3.254 -2.308,-1.009 -5.384,-1.847 -6.709,-4.075 -1.732,-2.911 -0.125,-5.429 1.042,-8.133 1.084,-2.509 2.166,-5.023 3.263,-7.526 1.074,-2.448 2.103,-5.114 3.255,-7.499 0.929,-1.923 2.653,-3.087 4.588,-3.236z"/>
  <polygon class="fil3" points="91.23,10.417 95.169,10.417 95.169,14.357 91.23,14.357 "/>
  <polygon class="fil4" points="136.584,10.386 140.524,10.386 140.524,14.326 136.584,14.326 "/>
 </g>
</svg>