<?xml version="1.0" encoding="utf-8"?>
<!-- Generator: Adobe Illustrator 28.0.0, SVG Export Plug-In . SVG Version: 6.00 Build 0)  -->
<svg version="1.1" id="Слой_1" xmlns="http://www.w3.org/2000/svg" xmlns:xlink="http://www.w3.org/1999/xlink" x="0px" y="0px"
	 viewBox="0 0 1000 487.5759277" enable-background="new 0 0 1000 487.5759277" xml:space="preserve">
<g>
	<path fill-rule="evenodd" clip-rule="evenodd" fill="#D71921" d="M518.9121704,422.8327026
		c-19.3263245-1.2424011-41.5516357-4.6935425-59.221405-9.801239c-3.3130798-0.9663086-16.9795532-5.9359131-20.4306946-7.5924683
		c-61.1540222-28.2992859-103.8100586-90.2816162-103.8100586-162.065155c0-98.4263,80.0662537-178.6305695,178.6305542-178.6305695
		c97.5980225,0,177.2501221,78.8238525,178.4926147,176.1457672h64.4671631
		C755.6598511,107.9514236,647.156311,0.2761285,513.9425659,0.2761285
		c-134.0419617,0-243.0977173,109.0557404-243.0977173,243.0977631c0,92.4903412,51.9050293,172.8326874,128.1059875,213.832077
		c13.6664734,7.3163757,33.4069824,14.770874,40.1712036,16.8415527
		c21.6730957,6.4881287,48.3158264,10.7675171,72.0596313,12.5620728
		c8.0066223,0.5522156,36.1678772,0.9663391,44.3125305,0.9663391l0,0h444.3677979v-64.3291016H556.4605103
		C550.5245361,423.3848877,524.710083,423.2468262,518.9121704,422.8327026z M556.4605103,321.9216003L556.4605103,321.9216003
		c-4.6935425,0-29.265625-0.1380615-33.821106-0.5521851c-7.7305298-0.6902161-18.7741394-1.7945557-25.9524841-3.4511108
		c-8.0066223-2.2087402-15.5990906-4.9696655-19.0502319-6.9022827
		c-24.0198669-12.9762268-40.3092346-38.3765564-40.3092346-67.5041199c0-42.5179291,34.3732605-76.8912354,76.8912354-76.8912354
		c41.5516357,0,75.3727417,33.1308594,76.7531738,74.4063873h61.9822998
		c-1.2424316-75.5107727-62.9486084-136.3887634-138.7355347-136.3887634
		c-76.7531738,0-139.0115967,62.120369-139.0115967,138.8735657c0,54.1137543,31.0601807,100.9111176,76.2010193,123.6885834
		c6.9022522,4.0032959,20.016571,8.2827148,23.7438049,9.249054c12.7001648,3.3130493,29.8177795,5.6598511,43.760376,6.6261292
		c5.107666,0.4141235,30.3699341,0.5521851,35.6156616,0.6902466v0.1380615H1000v-62.1203918H556.4605103V321.9216003z
		 M231.2258301,487.4379272h-64.8812714V65.0193329H71.3694V0h159.8564301V487.4379272z M0,97.4599686v62.3964767h71.3694
		v327.5814819h62.3964691V97.4599686H0z"/>
	<path fill-rule="evenodd" clip-rule="evenodd" fill="#D71921" d="M885.2843018,4.5555191
		c-23.4676514,0-42.7940063,18.6361122-42.7940063,42.1038094s19.326355,42.7940331,42.7940063,42.7940331
		c24.157959,0,42.7940674-19.3263397,42.7940674-42.7940331S909.4422607,4.5555191,885.2843018,4.5555191z M885.2843018,82.5511017
		c-19.3262939,0-36.0297852-15.1849823-36.0297852-35.8917732c0-19.7404785,16.7034912-35.2015457,36.0297852-35.2015457
		c19.326355,0,35.8917847,15.5991211,35.8917847,35.2015457C921.1760864,67.3661194,904.6106567,82.5511017,885.2843018,82.5511017z
		"/>
	<path fill-rule="evenodd" clip-rule="evenodd" fill="#D71921" d="M901.5736694,58.1170692
		c0-4.693531-0.6902466-9.1109962-6.0740356-10.7675362c6.7642212-2.3467636,7.4544678-6.7642097,7.4544678-9.525116
		c0-10.9055672-9.8011475-12.2860203-13.9425659-12.2860203h-18.6361084v42.1038055h7.7305298V50.3865471h6.0740356
		c8.8348999,0,9.5251465,4.0033035,9.5251465,7.7305412c0,7.1783524,0,8.5588074,1.6565552,9.525116h7.8685913
		C901.5736694,65.9856644,902.263855,64.605217,901.5736694,58.1170692z M887.3549805,44.1745071h-9.1109009V30.9221535h7.8685913
		c5.3837891,0,9.1109619,1.6565399,9.1109619,6.7642097C895.0855713,40.4472923,893.8431396,44.1745071,887.3549805,44.1745071z"/>
</g>
</svg>
