<svg width="1200" height="760" viewBox="0 0 1200 760" fill="none" xmlns="http://www.w3.org/2000/svg" role="img" aria-labelledby="title desc">
  <title id="title">Схема аудита внедрения Битрикс24</title>
  <desc id="desc">Рабочая схема проверки заявок, сделок, задач, коммуникаций и отчетов в CRM.</desc>
  <rect width="1200" height="760" rx="36" fill="#F7F7F4"/>
  <rect x="48" y="48" width="1104" height="664" rx="28" fill="#FFFFFF" stroke="#E7E0D4"/>
  <rect x="48" y="48" width="1104" height="86" rx="28" fill="#171717"/>
  <circle cx="100" cy="91" r="12" fill="#ED1C24"/>
  <circle cx="134" cy="91" r="12" fill="#FFD45A"/>
  <circle cx="168" cy="91" r="12" fill="#FFFFFF" opacity=".55"/>
  <text x="220" y="98" fill="#FFFFFF" font-family="Arial, sans-serif" font-size="28" font-weight="700">Проверка CRM как системы управления</text>
  <rect x="92" y="176" width="276" height="448" rx="24" fill="#FFF8E4" stroke="#F0DFA8"/>
  <text x="124" y="222" fill="#7A1216" font-family="Arial, sans-serif" font-size="22" font-weight="700">Поток заявки</text>
  <rect x="124" y="264" width="212" height="58" rx="16" fill="#FFFFFF" stroke="#EDDDBF"/>
  <text x="148" y="300" fill="#272727" font-family="Arial, sans-serif" font-size="18" font-weight="700">Источник</text>
  <rect x="124" y="346" width="212" height="58" rx="16" fill="#FFFFFF" stroke="#EDDDBF"/>
  <text x="148" y="382" fill="#272727" font-family="Arial, sans-serif" font-size="18" font-weight="700">Ответственный</text>
  <rect x="124" y="428" width="212" height="58" rx="16" fill="#FFFFFF" stroke="#EDDDBF"/>
  <text x="148" y="464" fill="#272727" font-family="Arial, sans-serif" font-size="18" font-weight="700">Следующий шаг</text>
  <rect x="124" y="510" width="212" height="58" rx="16" fill="#FFFFFF" stroke="#EDDDBF"/>
  <text x="148" y="546" fill="#272727" font-family="Arial, sans-serif" font-size="18" font-weight="700">Срок реакции</text>
  <path d="M372 400H488" stroke="#ED1C24" stroke-width="5" stroke-linecap="round"/>
  <path d="M472 382L490 400L472 418" stroke="#ED1C24" stroke-width="5" stroke-linecap="round" stroke-linejoin="round"/>
  <rect x="500" y="176" width="316" height="448" rx="24" fill="#FFFFFF" stroke="#E4E0D7"/>
  <text x="532" y="222" fill="#171717" font-family="Arial, sans-serif" font-size="22" font-weight="700">Карточка сделки</text>
  <rect x="532" y="266" width="252" height="44" rx="12" fill="#F5F5F2"/>
  <rect x="532" y="332" width="252" height="86" rx="16" fill="#FFF8E4" stroke="#F0DFA8"/>
  <text x="558" y="367" fill="#272727" font-family="Arial, sans-serif" font-size="18" font-weight="700">Дело: позвонить</text>
  <text x="558" y="394" fill="#746B5C" font-family="Arial, sans-serif" font-size="15">сегодня до 16:00</text>
  <rect x="532" y="442" width="112" height="88" rx="16" fill="#FEF1F2" stroke="#F2C2C5"/>
  <text x="558" y="480" fill="#7A1216" font-family="Arial, sans-serif" font-size="16" font-weight="700">Риск</text>
  <text x="558" y="506" fill="#7A1216" font-family="Arial, sans-serif" font-size="15">нет срока</text>
  <rect x="672" y="442" width="112" height="88" rx="16" fill="#F1F8F2" stroke="#C9E5CD"/>
  <text x="696" y="480" fill="#1E6B2D" font-family="Arial, sans-serif" font-size="16" font-weight="700">OK</text>
  <text x="696" y="503" fill="#1E6B2D" font-family="Arial, sans-serif" font-size="15">есть</text>
  <text x="696" y="522" fill="#1E6B2D" font-family="Arial, sans-serif" font-size="15">владелец</text>
  <path d="M820 400H936" stroke="#ED1C24" stroke-width="5" stroke-linecap="round"/>
  <path d="M920 382L938 400L920 418" stroke="#ED1C24" stroke-width="5" stroke-linecap="round" stroke-linejoin="round"/>
  <rect x="948" y="176" width="160" height="448" rx="24" fill="#171717"/>
  <text x="982" y="222" fill="#FFD45A" font-family="Arial, sans-serif" font-size="20" font-weight="700">Отчет</text>
  <rect x="984" y="274" width="88" height="240" rx="12" fill="#2B2B2B"/>
  <rect x="1004" y="412" width="18" height="70" rx="9" fill="#ED1C24"/>
  <rect x="1034" y="350" width="18" height="132" rx="9" fill="#FFD45A"/>
  <rect x="1064" y="306" width="18" height="176" rx="9" fill="#FFFFFF" opacity=".82"/>
  <text x="984" y="562" fill="#FFFFFF" opacity=".8" font-family="Arial, sans-serif" font-size="15">видно, где</text>
  <text x="984" y="586" fill="#FFFFFF" opacity=".8" font-family="Arial, sans-serif" font-size="15">теряется контроль</text>
</svg>
